<svg xmlns="http://www.w3.org/2000/svg" xmlns:xlink="http://www.w3.org/1999/xlink" width="300" zoomAndPan="magnify" viewBox="0 0 224.87999 75.119995" height="90" preserveAspectRatio="xMidYMid meet" version="1.0"><defs><g/><clipPath id="5816de0dbb"><path d="M 85 0 L 156 0 L 156 66.71875 L 85 66.71875 Z M 85 0 " clip-rule="nonzero"/></clipPath><clipPath id="0a41979222"><path d="M 39 40 L 70.4375 40 L 70.4375 66.71875 L 39 66.71875 Z M 39 40 " clip-rule="nonzero"/></clipPath><clipPath id="3777c0753d"><rect x="0" width="71" y="0" height="67"/></clipPath><clipPath id="de00a40010"><path d="M 154.339844 2.777344 L 166.941406 2.777344 L 166.941406 64 L 154.339844 64 Z M 154.339844 2.777344 " clip-rule="nonzero"/></clipPath></defs><g clip-path="url(#5816de0dbb)"><g transform="matrix(1, 0, 0, 1, 85, 0)"><g clip-path="url(#3777c0753d)"><g fill="#000000" fill-opacity="1"><g transform="translate(2.952182, 53.79691)"><g><path d="M 0.453125 -3.1875 C -0.691406 -3.1875 -1.265625 -3.78125 -1.265625 -4.96875 C -1.265625 -6.414062 -0.320312 -8.976562 1.5625 -12.65625 C 1.632812 -12.8125 1.769531 -12.890625 1.96875 -12.890625 C 2.71875 -12.890625 3.09375 -12.585938 3.09375 -11.984375 C 3.09375 -11.765625 3.023438 -11.5 2.890625 -11.1875 C 2.847656 -11.101562 2.222656 -9.519531 1.015625 -6.4375 C 0.816406 -5.9375 0.71875 -5.566406 0.71875 -5.328125 C 0.71875 -5.066406 0.835938 -4.9375 1.078125 -4.9375 C 1.953125 -4.9375 4.25 -7.113281 7.96875 -11.46875 C 8.445312 -12.050781 8.921875 -12.34375 9.390625 -12.34375 C 10.078125 -12.34375 10.421875 -12.09375 10.421875 -11.59375 C 10.421875 -11.394531 10.210938 -10.664062 9.796875 -9.40625 C 9.210938 -7.695312 8.921875 -6.707031 8.921875 -6.4375 C 8.921875 -6.039062 9.054688 -5.84375 9.328125 -5.84375 C 9.984375 -5.84375 11.90625 -7.019531 15.09375 -9.375 C 15.28125 -9.53125 15.4375 -9.609375 15.5625 -9.609375 C 15.863281 -9.609375 16.015625 -9.359375 16.015625 -8.859375 C 16.015625 -8.722656 15.972656 -8.613281 15.890625 -8.53125 C 14.203125 -7.082031 12.765625 -5.976562 11.578125 -5.21875 C 10.492188 -4.519531 9.53125 -4.171875 8.6875 -4.171875 L 8.4375 -4.171875 C 7.207031 -4.441406 6.59375 -5.410156 6.59375 -7.078125 C 5.269531 -5.910156 4.171875 -4.96875 3.296875 -4.25 C 2.429688 -3.539062 1.484375 -3.1875 0.453125 -3.1875 Z M 0.453125 -3.1875 "/></g></g></g><g fill="#000000" fill-opacity="1"><g transform="translate(17.744767, 53.79691)"><g><path d="M 18.8125 -9.015625 C 19.226562 -9.273438 19.554688 -9.335938 19.796875 -9.203125 C 20.035156 -9.078125 19.945312 -8.707031 19.53125 -8.09375 C 19 -7.382812 18.050781 -6.628906 16.6875 -5.828125 C 15.332031 -5.023438 14.128906 -4.675781 13.078125 -4.78125 C 12.035156 -4.882812 11.734375 -5.65625 12.171875 -7.09375 C 12.609375 -8.53125 12.84375 -9.332031 12.875 -9.5 C 12.914062 -9.675781 12.882812 -9.773438 12.78125 -9.796875 C 12.6875 -9.828125 12.453125 -9.710938 12.078125 -9.453125 C 10.992188 -8.703125 9.9375 -7.921875 8.90625 -7.109375 C 8.46875 -6.773438 8.03125 -6.421875 7.59375 -6.046875 C 7.332031 -5.804688 7.054688 -5.566406 6.765625 -5.328125 C 6.765625 -5.328125 6.753906 -5.316406 6.734375 -5.296875 C 6.421875 -4.984375 6.035156 -4.769531 5.578125 -4.65625 C 5.367188 -4.601562 5.148438 -4.582031 4.921875 -4.59375 C 4.703125 -4.613281 4.515625 -4.703125 4.359375 -4.859375 C 4.171875 -5.035156 4.101562 -5.222656 4.15625 -5.421875 C 4.207031 -5.617188 4.359375 -5.914062 4.609375 -6.3125 C 4.859375 -6.707031 5.132812 -7.140625 5.4375 -7.609375 C 5.75 -8.085938 5.921875 -8.378906 5.953125 -8.484375 C 5.992188 -8.597656 5.976562 -8.707031 5.90625 -8.8125 C 5.820312 -8.925781 5.726562 -8.960938 5.625 -8.921875 C 5.519531 -8.878906 5.132812 -8.617188 4.46875 -8.140625 C 3.8125 -7.671875 2.914062 -7.007812 1.78125 -6.15625 C 1.25 -5.757812 0.734375 -5.351562 0.234375 -4.9375 C 0.0976562 -4.800781 -0.046875 -4.679688 -0.203125 -4.578125 C -0.566406 -4.265625 -0.972656 -4.09375 -1.421875 -4.0625 C -1.742188 -4.039062 -1.984375 -4.113281 -2.140625 -4.28125 C -2.296875 -4.445312 -2.320312 -4.675781 -2.21875 -4.96875 C -2.144531 -5.1875 -2.050781 -5.382812 -1.9375 -5.5625 C -1.882812 -5.644531 -1.84375 -5.726562 -1.8125 -5.8125 C -0.863281 -7.726562 0.0664062 -9.65625 0.984375 -11.59375 C 1.015625 -11.632812 1.039062 -11.695312 1.0625 -11.78125 C 1.164062 -11.988281 1.273438 -12.1875 1.390625 -12.375 C 1.671875 -12.6875 2.007812 -12.789062 2.40625 -12.6875 C 2.863281 -12.550781 3.039062 -12.285156 2.9375 -11.890625 C 2.71875 -11.296875 2.503906 -10.703125 2.296875 -10.109375 C 2.191406 -9.847656 2.085938 -9.585938 1.984375 -9.328125 C 1.796875 -8.859375 1.734375 -8.554688 1.796875 -8.421875 C 1.867188 -8.285156 2.171875 -8.375 2.703125 -8.6875 C 3.054688 -8.925781 3.410156 -9.164062 3.765625 -9.40625 C 4.179688 -9.695312 4.585938 -9.960938 4.984375 -10.203125 C 5.597656 -10.578125 6.222656 -10.894531 6.859375 -11.15625 C 7.171875 -11.289062 7.488281 -11.390625 7.8125 -11.453125 C 8.144531 -11.515625 8.457031 -11.441406 8.75 -11.234375 C 8.96875 -11.046875 9.0625 -10.835938 9.03125 -10.609375 C 9 -10.390625 8.9375 -10.175781 8.84375 -9.96875 C 8.664062 -9.570312 8.59375 -9.316406 8.625 -9.203125 C 8.65625 -9.097656 8.75 -9.078125 8.90625 -9.140625 C 9.0625 -9.210938 9.335938 -9.367188 9.734375 -9.609375 C 10.128906 -9.847656 10.554688 -10.113281 11.015625 -10.40625 C 11.585938 -10.769531 12.191406 -11.125 12.828125 -11.46875 C 13.359375 -11.8125 13.925781 -12.019531 14.53125 -12.09375 C 15.351562 -12.15625 15.6875 -11.820312 15.53125 -11.09375 C 15.382812 -10.363281 15.09375 -9.5 14.65625 -8.5 C 14.226562 -7.5 14.1875 -6.882812 14.53125 -6.65625 C 14.875 -6.425781 15.632812 -6.734375 16.8125 -7.578125 C 17.988281 -8.429688 18.65625 -8.910156 18.8125 -9.015625 Z M 18.8125 -9.015625 "/></g></g></g><g fill="#000000" fill-opacity="1"><g transform="translate(36.78437, 53.79691)"><g><path d="M 18.8125 -9.015625 C 19.226562 -9.273438 19.554688 -9.335938 19.796875 -9.203125 C 20.035156 -9.078125 19.945312 -8.707031 19.53125 -8.09375 C 19 -7.382812 18.050781 -6.628906 16.6875 -5.828125 C 15.332031 -5.023438 14.128906 -4.675781 13.078125 -4.78125 C 12.035156 -4.882812 11.734375 -5.65625 12.171875 -7.09375 C 12.609375 -8.53125 12.84375 -9.332031 12.875 -9.5 C 12.914062 -9.675781 12.882812 -9.773438 12.78125 -9.796875 C 12.6875 -9.828125 12.453125 -9.710938 12.078125 -9.453125 C 10.992188 -8.703125 9.9375 -7.921875 8.90625 -7.109375 C 8.46875 -6.773438 8.03125 -6.421875 7.59375 -6.046875 C 7.332031 -5.804688 7.054688 -5.566406 6.765625 -5.328125 C 6.765625 -5.328125 6.753906 -5.316406 6.734375 -5.296875 C 6.421875 -4.984375 6.035156 -4.769531 5.578125 -4.65625 C 5.367188 -4.601562 5.148438 -4.582031 4.921875 -4.59375 C 4.703125 -4.613281 4.515625 -4.703125 4.359375 -4.859375 C 4.171875 -5.035156 4.101562 -5.222656 4.15625 -5.421875 C 4.207031 -5.617188 4.359375 -5.914062 4.609375 -6.3125 C 4.859375 -6.707031 5.132812 -7.140625 5.4375 -7.609375 C 5.75 -8.085938 5.921875 -8.378906 5.953125 -8.484375 C 5.992188 -8.597656 5.976562 -8.707031 5.90625 -8.8125 C 5.820312 -8.925781 5.726562 -8.960938 5.625 -8.921875 C 5.519531 -8.878906 5.132812 -8.617188 4.46875 -8.140625 C 3.8125 -7.671875 2.914062 -7.007812 1.78125 -6.15625 C 1.25 -5.757812 0.734375 -5.351562 0.234375 -4.9375 C 0.0976562 -4.800781 -0.046875 -4.679688 -0.203125 -4.578125 C -0.566406 -4.265625 -0.972656 -4.09375 -1.421875 -4.0625 C -1.742188 -4.039062 -1.984375 -4.113281 -2.140625 -4.28125 C -2.296875 -4.445312 -2.320312 -4.675781 -2.21875 -4.96875 C -2.144531 -5.1875 -2.050781 -5.382812 -1.9375 -5.5625 C -1.882812 -5.644531 -1.84375 -5.726562 -1.8125 -5.8125 C -0.863281 -7.726562 0.0664062 -9.65625 0.984375 -11.59375 C 1.015625 -11.632812 1.039062 -11.695312 1.0625 -11.78125 C 1.164062 -11.988281 1.273438 -12.1875 1.390625 -12.375 C 1.671875 -12.6875 2.007812 -12.789062 2.40625 -12.6875 C 2.863281 -12.550781 3.039062 -12.285156 2.9375 -11.890625 C 2.71875 -11.296875 2.503906 -10.703125 2.296875 -10.109375 C 2.191406 -9.847656 2.085938 -9.585938 1.984375 -9.328125 C 1.796875 -8.859375 1.734375 -8.554688 1.796875 -8.421875 C 1.867188 -8.285156 2.171875 -8.375 2.703125 -8.6875 C 3.054688 -8.925781 3.410156 -9.164062 3.765625 -9.40625 C 4.179688 -9.695312 4.585938 -9.960938 4.984375 -10.203125 C 5.597656 -10.578125 6.222656 -10.894531 6.859375 -11.15625 C 7.171875 -11.289062 7.488281 -11.390625 7.8125 -11.453125 C 8.144531 -11.515625 8.457031 -11.441406 8.75 -11.234375 C 8.96875 -11.046875 9.0625 -10.835938 9.03125 -10.609375 C 9 -10.390625 8.9375 -10.175781 8.84375 -9.96875 C 8.664062 -9.570312 8.59375 -9.316406 8.625 -9.203125 C 8.65625 -9.097656 8.75 -9.078125 8.90625 -9.140625 C 9.0625 -9.210938 9.335938 -9.367188 9.734375 -9.609375 C 10.128906 -9.847656 10.554688 -10.113281 11.015625 -10.40625 C 11.585938 -10.769531 12.191406 -11.125 12.828125 -11.46875 C 13.359375 -11.8125 13.925781 -12.019531 14.53125 -12.09375 C 15.351562 -12.15625 15.6875 -11.820312 15.53125 -11.09375 C 15.382812 -10.363281 15.09375 -9.5 14.65625 -8.5 C 14.226562 -7.5 14.1875 -6.882812 14.53125 -6.65625 C 14.875 -6.425781 15.632812 -6.734375 16.8125 -7.578125 C 17.988281 -8.429688 18.65625 -8.910156 18.8125 -9.015625 Z M 18.8125 -9.015625 "/></g></g></g><g clip-path="url(#0a41979222)"><g fill="#000000" fill-opacity="1"><g transform="translate(55.823974, 53.79691)"><g><path d="M 14.125 -9.375 C 14.28125 -9.070312 14.019531 -8.601562 13.34375 -7.96875 C 12.675781 -7.34375 11.5 -6.582031 9.8125 -5.6875 C 9.175781 -5.425781 8.710938 -5.21875 8.421875 -5.0625 C 8.128906 -4.90625 7.914062 -4.707031 7.78125 -4.46875 C 7.65625 -4.226562 7.515625 -3.851562 7.359375 -3.34375 C 7.222656 -2.976562 7.050781 -2.484375 6.84375 -1.859375 C 6.550781 -1.085938 6.257812 -0.296875 5.96875 0.515625 C 5.445312 2.191406 4.820312 3.84375 4.09375 5.46875 C 3.363281 7.09375 2.421875 8.507812 1.265625 9.71875 C 0.117188 10.925781 -1.359375 11.726562 -3.171875 12.125 C -4.992188 12.476562 -6.753906 12.535156 -8.453125 12.296875 C -10.160156 12.054688 -11.832031 11.582031 -13.46875 10.875 C -14.125 10.570312 -14.71875 10.175781 -15.25 9.6875 C -16.125 8.78125 -16.1875 7.769531 -15.4375 6.65625 C -15.039062 6.101562 -14.582031 5.609375 -14.0625 5.171875 C -13 4.316406 -11.894531 3.535156 -10.75 2.828125 C -8.59375 1.523438 -6.394531 0.335938 -4.15625 -0.734375 C -1.914062 -1.816406 0.347656 -2.863281 2.640625 -3.875 C 2.796875 -3.945312 2.972656 -4.023438 3.171875 -4.109375 C 3.796875 -4.390625 4.4375 -4.675781 5.09375 -4.96875 C 5.550781 -5.132812 5.859375 -5.441406 6.015625 -5.890625 C 6.054688 -6.046875 6.066406 -6.1875 6.046875 -6.3125 C 6.023438 -6.394531 5.976562 -6.441406 5.90625 -6.453125 C 5.84375 -6.472656 5.769531 -6.457031 5.6875 -6.40625 C 5.457031 -6.269531 5.222656 -6.117188 4.984375 -5.953125 C 4.847656 -5.878906 4.703125 -5.789062 4.546875 -5.6875 C 3.722656 -5.207031 2.867188 -5 1.984375 -5.0625 C 0.578125 -5.0625 -0.132812 -5.691406 -0.15625 -6.953125 C -0.1875 -7.984375 -0.015625 -8.957031 0.359375 -9.875 C 0.742188 -10.800781 1.285156 -11.671875 1.984375 -12.484375 C 2.054688 -12.566406 2.15625 -12.632812 2.28125 -12.6875 C 2.414062 -12.75 2.550781 -12.789062 2.6875 -12.8125 C 2.707031 -12.8125 2.734375 -12.820312 2.765625 -12.84375 C 3.035156 -12.875 3.238281 -12.8125 3.375 -12.65625 C 3.519531 -12.5 3.550781 -12.300781 3.46875 -12.0625 C 3.3125 -11.71875 3.15625 -11.375 3 -11.03125 C 2.875 -10.769531 2.742188 -10.503906 2.609375 -10.234375 C 2.078125 -9.203125 1.835938 -8.125 1.890625 -7 C 1.910156 -6.757812 2.015625 -6.582031 2.203125 -6.46875 C 2.390625 -6.363281 2.601562 -6.367188 2.84375 -6.484375 C 3.550781 -6.765625 4.171875 -7.171875 4.703125 -7.703125 C 6.128906 -8.992188 7.300781 -10.488281 8.21875 -12.1875 C 8.351562 -12.425781 8.503906 -12.628906 8.671875 -12.796875 C 8.847656 -12.960938 9.082031 -13.054688 9.375 -13.078125 C 9.75 -13.117188 10.035156 -13.039062 10.234375 -12.84375 C 10.429688 -12.644531 10.488281 -12.382812 10.40625 -12.0625 C 10.070312 -10.976562 9.71875 -9.910156 9.34375 -8.859375 C 9.320312 -8.773438 9.289062 -8.695312 9.25 -8.625 C 9.15625 -8.382812 9.066406 -8.128906 8.984375 -7.859375 C 8.898438 -7.597656 8.859375 -7.367188 8.859375 -7.171875 C 8.859375 -6.972656 8.941406 -6.875 9.109375 -6.875 C 9.765625 -7.007812 10.722656 -7.535156 11.984375 -8.453125 C 13.253906 -9.378906 13.96875 -9.6875 14.125 -9.375 Z M 4.703125 -2.15625 C 4.703125 -2.21875 4.71875 -2.273438 4.75 -2.328125 C 4.820312 -2.453125 4.863281 -2.59375 4.875 -2.75 C 4.882812 -2.90625 4.84375 -3.066406 4.75 -3.234375 C 4.664062 -3.234375 4.597656 -3.234375 4.546875 -3.234375 C 4.378906 -3.203125 4.234375 -3.160156 4.109375 -3.109375 C 3.835938 -3.003906 3.570312 -2.882812 3.3125 -2.75 C 1.195312 -1.78125 -0.910156 -0.78125 -3.015625 0.25 C -5.128906 1.28125 -7.203125 2.378906 -9.234375 3.546875 C -10.472656 4.253906 -11.632812 5.082031 -12.71875 6.03125 C -13.613281 6.820312 -14.039062 7.515625 -14 8.109375 C -13.96875 8.703125 -13.445312 9.238281 -12.4375 9.71875 C -10.144531 10.90625 -7.679688 11.390625 -5.046875 11.171875 C -3.242188 10.992188 -1.78125 10.316406 -0.65625 9.140625 C 0.46875 7.960938 1.382812 6.554688 2.09375 4.921875 C 2.8125 3.285156 3.429688 1.648438 3.953125 0.015625 C 4.179688 -0.753906 4.429688 -1.476562 4.703125 -2.15625 Z M 4.703125 -2.15625 "/></g></g></g></g></g></g></g><g clip-path="url(#de00a40010)"><path fill="#ff6d4d" d="M 162.890625 28.199219 C 162.890625 27.214844 163.132812 26.246094 163.582031 25.378906 L 165.707031 22.769531 C 166.628906 21.640625 167.105469 20.210938 167.054688 18.75 L 165.699219 3.472656 C 165.683594 3.085938 165.363281 2.777344 164.992188 2.777344 C 164.617188 2.777344 164.320312 3.085938 164.335938 3.472656 L 164.996094 17.046875 C 165.015625 17.585938 164.625 18.023438 164.132812 18.023438 C 163.640625 18.023438 163.234375 17.585938 163.222656 17.046875 L 162.835938 3.472656 C 162.832031 3.085938 162.523438 2.777344 162.148438 2.777344 C 161.773438 2.777344 161.476562 3.085938 161.476562 3.472656 L 161.613281 17.046875 C 161.617188 17.585938 161.222656 18.023438 160.726562 18.023438 C 160.234375 18.023438 159.835938 17.585938 159.839844 17.046875 L 159.980469 3.472656 C 159.976562 3.085938 159.675781 2.777344 159.300781 2.777344 C 158.925781 2.777344 158.617188 3.085938 158.609375 3.472656 L 158.222656 17.046875 C 158.210938 17.585938 157.804688 18.023438 157.3125 18.023438 C 156.820312 18.023438 156.429688 17.585938 156.449219 17.046875 L 157.109375 3.472656 C 157.125 3.085938 156.828125 2.777344 156.453125 2.777344 C 156.082031 2.777344 155.761719 3.085938 155.75 3.472656 L 154.390625 18.75 C 154.339844 20.210938 154.820312 21.636719 155.738281 22.769531 L 157.863281 25.378906 C 158.320312 26.25 158.554688 27.214844 158.554688 28.199219 C 158.554688 28.199219 159.542969 42.785156 157.671875 56.863281 C 157.671875 56.863281 156.226562 63.933594 160.71875 63.933594 C 165.207031 63.933594 163.765625 56.863281 163.765625 56.863281 C 161.902344 42.785156 162.890625 28.199219 162.890625 28.199219 Z M 162.890625 28.199219 " fill-opacity="1" fill-rule="nonzero"/></g><g fill="#af4c0f" fill-opacity="1"><g transform="translate(114.248699, 35.570429)"><g><path d="M 9.625 -0.078125 C 9.332031 0.234375 8.992188 0.390625 8.609375 0.390625 C 8.234375 0.390625 7.867188 0.207031 7.515625 -0.15625 C 7.171875 -0.519531 6.882812 -1.039062 6.65625 -1.71875 C 6.425781 -2.394531 6.265625 -3 6.171875 -3.53125 C 5.960938 -3.125 5.800781 -2.8125 5.6875 -2.59375 C 5.570312 -2.375 5.398438 -2.097656 5.171875 -1.765625 C 4.941406 -1.429688 4.707031 -1.128906 4.46875 -0.859375 C 3.707031 -0.0351562 2.84375 0.375 1.875 0.375 C 1.007812 0.375 0.46875 0.140625 0.25 -0.328125 C 0.195312 -0.441406 0.171875 -0.570312 0.171875 -0.71875 C 0.171875 -0.863281 0.242188 -1.019531 0.390625 -1.1875 C 0.628906 -1.445312 0.960938 -1.578125 1.390625 -1.578125 C 1.671875 -1.578125 1.96875 -1.523438 2.28125 -1.421875 C 2.363281 -1.378906 2.394531 -1.335938 2.375 -1.296875 C 2.363281 -1.265625 2.28125 -1.273438 2.125 -1.328125 C 1.976562 -1.390625 1.800781 -1.421875 1.59375 -1.421875 C 1.382812 -1.421875 1.203125 -1.335938 1.046875 -1.171875 C 0.898438 -1.015625 0.828125 -0.847656 0.828125 -0.671875 C 0.828125 -0.597656 0.84375 -0.515625 0.875 -0.421875 C 1 -0.0859375 1.300781 0.078125 1.78125 0.078125 C 2.3125 0.078125 2.78125 -0.078125 3.1875 -0.390625 C 3.414062 -0.578125 3.625 -0.765625 3.8125 -0.953125 C 4 -1.140625 4.203125 -1.390625 4.421875 -1.703125 C 4.753906 -2.191406 5.035156 -2.644531 5.265625 -3.0625 C 5.503906 -3.476562 5.757812 -3.929688 6.03125 -4.421875 C 6.3125 -4.910156 6.515625 -5.269531 6.640625 -5.5 C 7.054688 -6.207031 7.4375 -6.75 7.78125 -7.125 C 7.414062 -7.15625 7.050781 -7.171875 6.6875 -7.171875 C 5.863281 -7.171875 5.039062 -7.082031 4.21875 -6.90625 C 3.40625 -6.738281 2.757812 -6.457031 2.28125 -6.0625 C 1.6875 -5.5625 1.390625 -5.03125 1.390625 -4.46875 C 1.390625 -4.195312 1.484375 -3.957031 1.671875 -3.75 C 1.867188 -3.539062 2.128906 -3.4375 2.453125 -3.4375 C 2.859375 -3.4375 3.191406 -3.578125 3.453125 -3.859375 C 3.722656 -4.148438 3.863281 -4.378906 3.875 -4.546875 C 3.882812 -4.628906 3.90625 -4.671875 3.9375 -4.671875 C 3.988281 -4.671875 4.007812 -4.625 4 -4.53125 C 3.957031 -4.21875 3.832031 -3.953125 3.625 -3.734375 C 3.257812 -3.359375 2.828125 -3.171875 2.328125 -3.171875 C 1.941406 -3.171875 1.609375 -3.300781 1.328125 -3.5625 C 1.046875 -3.820312 0.90625 -4.164062 0.90625 -4.59375 C 0.90625 -5.238281 1.21875 -5.8125 1.84375 -6.3125 C 2.46875 -6.820312 3.285156 -7.148438 4.296875 -7.296875 C 5.023438 -7.398438 5.691406 -7.453125 6.296875 -7.453125 C 6.910156 -7.453125 7.472656 -7.421875 7.984375 -7.359375 C 8.160156 -7.535156 8.28125 -7.625 8.34375 -7.625 C 8.382812 -7.625 8.40625 -7.59375 8.40625 -7.53125 C 8.40625 -7.46875 8.382812 -7.390625 8.34375 -7.296875 C 8.820312 -7.222656 9.144531 -7.164062 9.3125 -7.125 C 10.28125 -6.832031 10.765625 -6.390625 10.765625 -5.796875 C 10.765625 -5.421875 10.53125 -5.046875 10.0625 -4.671875 C 9.46875 -4.210938 8.671875 -3.898438 7.671875 -3.734375 C 7.390625 -3.691406 7.09375 -3.664062 6.78125 -3.65625 C 6.988281 -2.507812 7.347656 -1.546875 7.859375 -0.765625 C 8.035156 -0.503906 8.191406 -0.3125 8.328125 -0.1875 C 8.472656 -0.0703125 8.632812 -0.015625 8.8125 -0.015625 C 9.039062 -0.015625 9.285156 -0.140625 9.546875 -0.390625 C 9.804688 -0.648438 10.109375 -1.125 10.453125 -1.8125 C 10.503906 -1.90625 10.554688 -1.953125 10.609375 -1.953125 C 10.660156 -1.953125 10.664062 -1.90625 10.625 -1.8125 C 10.25 -0.96875 9.914062 -0.390625 9.625 -0.078125 Z M 10.0625 -5.953125 C 10.0625 -6.003906 10.054688 -6.054688 10.046875 -6.109375 C 9.972656 -6.460938 9.6875 -6.71875 9.1875 -6.875 C 9.03125 -6.925781 8.710938 -6.988281 8.234375 -7.0625 C 8.117188 -6.863281 7.832031 -6.394531 7.375 -5.65625 C 6.925781 -4.914062 6.59375 -4.332031 6.375 -3.90625 C 6.519531 -3.925781 6.726562 -3.945312 7 -3.96875 C 7.269531 -4 7.46875 -4.019531 7.59375 -4.03125 C 8.332031 -4.125 8.957031 -4.410156 9.46875 -4.890625 C 9.863281 -5.253906 10.0625 -5.609375 10.0625 -5.953125 Z M 10.0625 -5.953125 "/></g></g></g><g fill="#af4c0f" fill-opacity="1"><g transform="translate(124.164521, 35.570429)"><g><path d="M 0.984375 -1.484375 C 0.890625 -1.265625 0.84375 -1.019531 0.84375 -0.75 C 0.84375 -0.570312 0.878906 -0.429688 0.953125 -0.328125 C 1.035156 -0.222656 1.15625 -0.171875 1.3125 -0.171875 C 1.894531 -0.171875 2.425781 -0.722656 2.90625 -1.828125 C 2.945312 -1.921875 3.003906 -1.960938 3.078125 -1.953125 C 3.097656 -1.953125 3.109375 -1.9375 3.109375 -1.90625 C 3.109375 -1.882812 3.035156 -1.71875 2.890625 -1.40625 C 2.742188 -1.09375 2.597656 -0.835938 2.453125 -0.640625 C 2.117188 -0.191406 1.710938 0.03125 1.234375 0.03125 C 0.972656 0.03125 0.75 -0.0507812 0.5625 -0.21875 C 0.382812 -0.382812 0.296875 -0.613281 0.296875 -0.90625 C 0.296875 -1.195312 0.363281 -1.503906 0.5 -1.828125 C 0.644531 -2.148438 0.835938 -2.453125 1.078125 -2.734375 C 1.316406 -3.015625 1.59375 -3.222656 1.90625 -3.359375 C 2.050781 -3.421875 2.191406 -3.453125 2.328125 -3.453125 C 2.460938 -3.453125 2.585938 -3.410156 2.703125 -3.328125 C 2.816406 -3.242188 2.875 -3.144531 2.875 -3.03125 C 2.875 -2.644531 2.640625 -2.273438 2.171875 -1.921875 C 2.023438 -1.804688 1.820312 -1.703125 1.5625 -1.609375 C 1.3125 -1.523438 1.117188 -1.484375 0.984375 -1.484375 Z M 2.609375 -3.046875 C 2.609375 -3.171875 2.554688 -3.234375 2.453125 -3.234375 C 2.265625 -3.234375 1.988281 -3.007812 1.625 -2.5625 C 1.40625 -2.289062 1.210938 -1.988281 1.046875 -1.65625 C 1.148438 -1.65625 1.304688 -1.691406 1.515625 -1.765625 C 1.734375 -1.847656 1.921875 -1.953125 2.078125 -2.078125 C 2.429688 -2.378906 2.609375 -2.703125 2.609375 -3.046875 Z M 2.609375 -3.046875 "/></g></g></g><g fill="#af4c0f" fill-opacity="1"><g transform="translate(126.546638, 35.570429)"><g><path d="M 2.328125 -2.234375 C 2.554688 -2.503906 2.671875 -2.734375 2.671875 -2.921875 C 2.671875 -3.109375 2.59375 -3.203125 2.4375 -3.203125 C 2.132812 -3.203125 1.789062 -2.921875 1.40625 -2.359375 C 1.28125 -2.191406 1.160156 -1.960938 1.046875 -1.671875 C 0.929688 -1.390625 0.875 -1.132812 0.875 -0.90625 C 0.875 -0.675781 0.921875 -0.488281 1.015625 -0.34375 C 1.109375 -0.207031 1.253906 -0.140625 1.453125 -0.140625 C 1.648438 -0.140625 1.832031 -0.1875 2 -0.28125 C 2.164062 -0.375 2.320312 -0.519531 2.46875 -0.71875 C 2.625 -0.925781 2.738281 -1.097656 2.8125 -1.234375 C 2.894531 -1.367188 3.003906 -1.570312 3.140625 -1.84375 C 3.179688 -1.925781 3.21875 -1.957031 3.25 -1.9375 C 3.28125 -1.925781 3.296875 -1.90625 3.296875 -1.875 C 3.296875 -1.851562 3.253906 -1.75 3.171875 -1.5625 C 3.085938 -1.375 3 -1.195312 2.90625 -1.03125 C 2.820312 -0.875 2.695312 -0.695312 2.53125 -0.5 C 2.25 -0.144531 1.851562 0.03125 1.34375 0.03125 C 0.976562 0.03125 0.71875 -0.0546875 0.5625 -0.234375 C 0.40625 -0.410156 0.328125 -0.613281 0.328125 -0.84375 C 0.328125 -1.125 0.394531 -1.429688 0.53125 -1.765625 C 0.675781 -2.109375 0.835938 -2.398438 1.015625 -2.640625 C 1.390625 -3.148438 1.820312 -3.40625 2.3125 -3.40625 C 2.550781 -3.40625 2.722656 -3.347656 2.828125 -3.234375 C 2.941406 -3.128906 3 -3 3 -2.84375 C 3 -2.625 2.90625 -2.4375 2.71875 -2.28125 C 2.632812 -2.195312 2.5625 -2.15625 2.5 -2.15625 C 2.4375 -2.15625 2.378906 -2.179688 2.328125 -2.234375 Z M 2.328125 -2.234375 "/></g></g></g><g fill="#af4c0f" fill-opacity="1"><g transform="translate(129.064324, 35.570429)"><g><path d="M 1.875 -3.765625 C 1.789062 -3.691406 1.691406 -3.65625 1.578125 -3.65625 C 1.472656 -3.65625 1.382812 -3.691406 1.3125 -3.765625 C 1.25 -3.847656 1.222656 -3.941406 1.234375 -4.046875 C 1.253906 -4.160156 1.3125 -4.253906 1.40625 -4.328125 C 1.5 -4.410156 1.597656 -4.453125 1.703125 -4.453125 C 1.816406 -4.453125 1.90625 -4.410156 1.96875 -4.328125 C 2.039062 -4.253906 2.066406 -4.160156 2.046875 -4.046875 C 2.023438 -3.941406 1.96875 -3.847656 1.875 -3.765625 Z M 0.9375 -0.21875 C 1.050781 -0.21875 1.175781 -0.273438 1.3125 -0.390625 C 1.550781 -0.628906 1.859375 -1.117188 2.234375 -1.859375 C 2.273438 -1.953125 2.316406 -1.984375 2.359375 -1.953125 C 2.378906 -1.929688 2.390625 -1.90625 2.390625 -1.875 C 2.390625 -1.851562 2.363281 -1.785156 2.3125 -1.671875 C 2.257812 -1.554688 2.210938 -1.453125 2.171875 -1.359375 C 2.128906 -1.273438 2.046875 -1.128906 1.921875 -0.921875 C 1.804688 -0.722656 1.695312 -0.566406 1.59375 -0.453125 C 1.332031 -0.148438 1.082031 0 0.84375 0 C 0.613281 0 0.445312 -0.0664062 0.34375 -0.203125 C 0.238281 -0.347656 0.1875 -0.507812 0.1875 -0.6875 C 0.1875 -0.863281 0.226562 -1.054688 0.3125 -1.265625 L 0.9375 -2.84375 C 0.945312 -2.875 0.953125 -2.921875 0.953125 -2.984375 C 0.953125 -3.054688 0.910156 -3.144531 0.828125 -3.25 L 1.359375 -3.25 C 1.515625 -3.25 1.601562 -3.222656 1.625 -3.171875 C 1.65625 -3.117188 1.632812 -3.035156 1.5625 -2.921875 L 0.796875 -1.109375 C 0.679688 -0.867188 0.625 -0.664062 0.625 -0.5 C 0.625 -0.3125 0.726562 -0.21875 0.9375 -0.21875 Z M 0.9375 -0.21875 "/></g></g></g><g fill="#af4c0f" fill-opacity="1"><g transform="translate(130.749241, 35.570429)"><g><path d="M 3.453125 -2.640625 C 3.453125 -2.347656 3.378906 -2.03125 3.234375 -1.6875 C 3.085938 -1.351562 2.882812 -1.023438 2.625 -0.703125 C 2.363281 -0.390625 2.046875 -0.175781 1.671875 -0.0625 C 1.523438 -0.0195312 1.359375 0 1.171875 0 C 0.992188 0 0.796875 -0.0546875 0.578125 -0.171875 L -0.34375 2.125 C -0.445312 2.332031 -0.539062 2.46875 -0.625 2.53125 C -0.707031 2.59375 -0.785156 2.625 -0.859375 2.625 C -0.941406 2.625 -0.988281 2.625 -1 2.625 C -1.019531 2.625 -1.078125 2.613281 -1.171875 2.59375 C -1.273438 2.570312 -1.351562 2.566406 -1.40625 2.578125 C -1.257812 2.441406 -0.894531 1.796875 -0.3125 0.640625 C 0.257812 -0.503906 0.582031 -1.28125 0.65625 -1.6875 C 0.582031 -1.582031 0.515625 -1.523438 0.453125 -1.515625 C 0.410156 -1.515625 0.410156 -1.550781 0.453125 -1.625 C 0.492188 -1.707031 0.5625 -1.851562 0.65625 -2.0625 C 0.769531 -2.34375 0.828125 -2.597656 0.828125 -2.828125 C 0.828125 -3.066406 0.78125 -3.207031 0.6875 -3.25 C 1.070312 -3.3125 1.296875 -3.335938 1.359375 -3.328125 C 1.429688 -3.328125 1.472656 -3.300781 1.484375 -3.25 C 1.503906 -3.195312 1.515625 -3.140625 1.515625 -3.078125 C 1.515625 -2.679688 1.421875 -2.242188 1.234375 -1.765625 L 1.4375 -2.078125 C 1.664062 -2.453125 1.832031 -2.691406 1.9375 -2.796875 C 2.050781 -2.910156 2.164062 -3.023438 2.28125 -3.140625 C 2.46875 -3.316406 2.648438 -3.40625 2.828125 -3.40625 C 2.878906 -3.40625 2.925781 -3.398438 2.96875 -3.390625 C 3.289062 -3.304688 3.453125 -3.054688 3.453125 -2.640625 Z M 3 -2.734375 C 3 -2.835938 2.976562 -2.929688 2.9375 -3.015625 C 2.894531 -3.097656 2.828125 -3.140625 2.734375 -3.140625 C 2.503906 -3.140625 2.238281 -2.929688 1.9375 -2.515625 C 1.632812 -2.097656 1.207031 -1.363281 0.65625 -0.3125 C 0.738281 -0.226562 0.851562 -0.1875 1 -0.1875 C 1.144531 -0.1875 1.351562 -0.300781 1.625 -0.53125 C 2.0625 -0.894531 2.425781 -1.34375 2.71875 -1.875 C 2.90625 -2.226562 3 -2.515625 3 -2.734375 Z M 3 -2.734375 "/></g></g></g><g fill="#af4c0f" fill-opacity="1"><g transform="translate(134.002869, 35.570429)"><g><path d="M 0.984375 -1.484375 C 0.890625 -1.265625 0.84375 -1.019531 0.84375 -0.75 C 0.84375 -0.570312 0.878906 -0.429688 0.953125 -0.328125 C 1.035156 -0.222656 1.15625 -0.171875 1.3125 -0.171875 C 1.894531 -0.171875 2.425781 -0.722656 2.90625 -1.828125 C 2.945312 -1.921875 3.003906 -1.960938 3.078125 -1.953125 C 3.097656 -1.953125 3.109375 -1.9375 3.109375 -1.90625 C 3.109375 -1.882812 3.035156 -1.71875 2.890625 -1.40625 C 2.742188 -1.09375 2.597656 -0.835938 2.453125 -0.640625 C 2.117188 -0.191406 1.710938 0.03125 1.234375 0.03125 C 0.972656 0.03125 0.75 -0.0507812 0.5625 -0.21875 C 0.382812 -0.382812 0.296875 -0.613281 0.296875 -0.90625 C 0.296875 -1.195312 0.363281 -1.503906 0.5 -1.828125 C 0.644531 -2.148438 0.835938 -2.453125 1.078125 -2.734375 C 1.316406 -3.015625 1.59375 -3.222656 1.90625 -3.359375 C 2.050781 -3.421875 2.191406 -3.453125 2.328125 -3.453125 C 2.460938 -3.453125 2.585938 -3.410156 2.703125 -3.328125 C 2.816406 -3.242188 2.875 -3.144531 2.875 -3.03125 C 2.875 -2.644531 2.640625 -2.273438 2.171875 -1.921875 C 2.023438 -1.804688 1.820312 -1.703125 1.5625 -1.609375 C 1.3125 -1.523438 1.117188 -1.484375 0.984375 -1.484375 Z M 2.609375 -3.046875 C 2.609375 -3.171875 2.554688 -3.234375 2.453125 -3.234375 C 2.265625 -3.234375 1.988281 -3.007812 1.625 -2.5625 C 1.40625 -2.289062 1.210938 -1.988281 1.046875 -1.65625 C 1.148438 -1.65625 1.304688 -1.691406 1.515625 -1.765625 C 1.734375 -1.847656 1.921875 -1.953125 2.078125 -2.078125 C 2.429688 -2.378906 2.609375 -2.703125 2.609375 -3.046875 Z M 2.609375 -3.046875 "/></g></g></g><g fill="#af4c0f" fill-opacity="1"><g transform="translate(136.384986, 35.570429)"><g><path d="M 1.390625 -0.1875 C 1.472656 -0.175781 1.53125 -0.171875 1.5625 -0.171875 C 1.820312 -0.171875 2.078125 -0.320312 2.328125 -0.625 C 2.460938 -0.789062 2.707031 -1.210938 3.0625 -1.890625 C 3.070312 -1.921875 3.09375 -1.9375 3.125 -1.9375 C 3.1875 -1.945312 3.21875 -1.925781 3.21875 -1.875 C 3.21875 -1.851562 3.203125 -1.8125 3.171875 -1.75 C 3.140625 -1.695312 3.109375 -1.640625 3.078125 -1.578125 C 3.054688 -1.515625 3.015625 -1.425781 2.953125 -1.3125 C 2.898438 -1.195312 2.851562 -1.101562 2.8125 -1.03125 C 2.769531 -0.957031 2.710938 -0.867188 2.640625 -0.765625 C 2.578125 -0.660156 2.515625 -0.578125 2.453125 -0.515625 L 2.25 -0.3125 C 2.144531 -0.195312 2.015625 -0.117188 1.859375 -0.078125 C 1.617188 -0.00390625 1.390625 0 1.171875 -0.0625 C 1.023438 0 0.890625 0.03125 0.765625 0.03125 C 0.304688 0.03125 0.03125 -0.144531 -0.0625 -0.5 C -0.0820312 -0.582031 -0.09375 -0.679688 -0.09375 -0.796875 C -0.09375 -0.921875 -0.0507812 -1.035156 0.03125 -1.140625 C 0.113281 -1.253906 0.195312 -1.316406 0.28125 -1.328125 C 0.613281 -1.953125 0.894531 -2.515625 1.125 -3.015625 C 1.382812 -3.566406 1.6875 -3.84375 2.03125 -3.84375 C 2.125 -3.84375 2.210938 -3.820312 2.296875 -3.78125 C 2.378906 -3.738281 2.410156 -3.691406 2.390625 -3.640625 C 2.367188 -3.585938 2.320312 -3.578125 2.25 -3.609375 C 2.175781 -3.640625 2.113281 -3.65625 2.0625 -3.65625 C 2.007812 -3.65625 1.96875 -3.644531 1.9375 -3.625 C 1.71875 -3.53125 1.609375 -3.3125 1.609375 -2.96875 C 1.609375 -2.78125 1.632812 -2.628906 1.6875 -2.515625 C 1.738281 -2.398438 1.796875 -2.273438 1.859375 -2.140625 C 2.003906 -1.804688 2.078125 -1.53125 2.078125 -1.3125 C 2.078125 -1.101562 2.007812 -0.894531 1.875 -0.6875 C 1.738281 -0.476562 1.578125 -0.3125 1.390625 -0.1875 Z M 1.0625 -0.25 C 1.34375 -0.46875 1.484375 -0.820312 1.484375 -1.3125 C 1.484375 -1.519531 1.460938 -1.796875 1.421875 -2.140625 C 1.378906 -2.484375 1.359375 -2.71875 1.359375 -2.84375 C 1.359375 -2.96875 1.359375 -3.050781 1.359375 -3.09375 C 0.867188 -2.113281 0.566406 -1.519531 0.453125 -1.3125 C 0.585938 -1.3125 0.65625 -1.210938 0.65625 -1.015625 C 0.65625 -0.640625 0.789062 -0.382812 1.0625 -0.25 Z M 0.328125 -0.515625 C 0.328125 -0.472656 0.332031 -0.429688 0.34375 -0.390625 C 0.394531 -0.210938 0.515625 -0.125 0.703125 -0.125 C 0.773438 -0.125 0.835938 -0.140625 0.890625 -0.171875 C 0.648438 -0.316406 0.523438 -0.554688 0.515625 -0.890625 C 0.390625 -0.773438 0.328125 -0.648438 0.328125 -0.515625 Z M 0.328125 -0.515625 "/></g></g></g><g fill="#ff6d4d" fill-opacity="1"><g transform="translate(66.382632, 39.507824)"><g><path d="M 31.96875 -25.34375 C 31.96875 -23.40625 31.335938 -21.378906 30.078125 -19.265625 C 28.828125 -17.160156 27.097656 -15.320312 24.890625 -13.75 C 22.679688 -12.1875 20.394531 -11.203125 18.03125 -10.796875 C 16.675781 -8.066406 15.703125 -6.15625 15.109375 -5.0625 L 14.40625 -3.9375 C 18.800781 -2.84375 22.445312 -1.1875 25.34375 1.03125 C 26.8125 2.164062 27.800781 3.554688 28.3125 5.203125 C 28.570312 6.046875 28.703125 6.765625 28.703125 7.359375 C 28.703125 7.960938 28.582031 8.46875 28.34375 8.875 C 28.113281 9.289062 27.84375 9.578125 27.53125 9.734375 C 27.226562 9.890625 27.007812 9.96875 26.875 9.96875 C 26.738281 9.96875 26.671875 9.910156 26.671875 9.796875 C 26.671875 9.691406 26.796875 9.363281 27.046875 8.8125 C 27.304688 8.269531 27.4375 7.628906 27.4375 6.890625 C 27.4375 6.160156 27.28125 5.351562 26.96875 4.46875 C 26.65625 3.582031 26.078125 2.765625 25.234375 2.015625 C 24.390625 1.273438 23.21875 0.578125 21.71875 -0.078125 C 20.21875 -0.734375 18.914062 -1.203125 17.8125 -1.484375 C 16.71875 -1.765625 15.25 -2.082031 13.40625 -2.4375 C 11.507812 0.207031 9.539062 2.019531 7.5 3 C 6.28125 3.601562 5.195312 3.90625 4.25 3.90625 C 3.300781 3.90625 2.460938 3.710938 1.734375 3.328125 C 0.460938 2.710938 -0.171875 1.769531 -0.171875 0.5 C -0.171875 -0.769531 0.660156 -1.878906 2.328125 -2.828125 C 4.222656 -3.941406 6.78125 -4.5 10 -4.5 C 11.15625 -4.5 12.203125 -4.410156 13.140625 -4.234375 C 14.140625 -5.785156 15.304688 -7.929688 16.640625 -10.671875 C 16.503906 -10.671875 16.378906 -10.671875 16.265625 -10.671875 C 14.867188 -10.671875 13.566406 -10.90625 12.359375 -11.375 C 11.160156 -11.84375 10.207031 -12.472656 9.5 -13.265625 C 8.5625 -14.316406 8.09375 -15.5 8.09375 -16.8125 C 8.09375 -17.5 8.265625 -18.238281 8.609375 -19.03125 C 8.960938 -19.832031 9.734375 -20.644531 10.921875 -21.46875 C 12.109375 -22.289062 13.613281 -22.914062 15.4375 -23.34375 C 15.726562 -23.40625 15.972656 -23.4375 16.171875 -23.4375 C 16.367188 -23.4375 16.488281 -23.378906 16.53125 -23.265625 C 16.582031 -23.160156 16.492188 -23.0625 16.265625 -22.96875 C 16.046875 -22.882812 15.789062 -22.820312 15.5 -22.78125 C 14.539062 -22.664062 13.648438 -22.34375 12.828125 -21.8125 C 11.410156 -20.894531 10.425781 -19.492188 9.875 -17.609375 C 9.738281 -17.160156 9.671875 -16.726562 9.671875 -16.3125 C 9.671875 -15.90625 9.75 -15.410156 9.90625 -14.828125 C 10.0625 -14.253906 10.394531 -13.660156 10.90625 -13.046875 C 11.414062 -12.441406 12.109375 -12.015625 12.984375 -11.765625 C 13.859375 -11.523438 14.625 -11.40625 15.28125 -11.40625 C 15.9375 -11.40625 16.546875 -11.4375 17.109375 -11.5 L 19.9375 -18.640625 C 21.894531 -23.660156 24.226562 -26.75 26.9375 -27.90625 C 27.644531 -28.195312 28.335938 -28.34375 29.015625 -28.34375 C 29.703125 -28.34375 30.347656 -28.125 30.953125 -27.6875 C 31.566406 -27.257812 31.894531 -26.734375 31.9375 -26.109375 C 31.957031 -25.835938 31.96875 -25.582031 31.96875 -25.34375 Z M 30.578125 -25.3125 C 30.578125 -26.15625 30.1875 -26.578125 29.40625 -26.578125 C 28.269531 -26.578125 26.890625 -25.585938 25.265625 -23.609375 C 24.003906 -22.023438 22.789062 -20.113281 21.625 -17.875 C 20.457031 -15.644531 19.414062 -13.585938 18.5 -11.703125 C 21.59375 -12.390625 24.378906 -14.082031 26.859375 -16.78125 C 29.335938 -19.488281 30.578125 -22.332031 30.578125 -25.3125 Z M 12.109375 -2.640625 C 11.015625 -2.878906 9.890625 -3 8.734375 -3 C 7.578125 -3 6.390625 -2.832031 5.171875 -2.5 C 2.609375 -1.832031 1.109375 -0.890625 0.671875 0.328125 C 0.578125 0.554688 0.53125 0.769531 0.53125 0.96875 C 0.53125 1.539062 0.847656 2.007812 1.484375 2.375 C 2.117188 2.75 2.8125 2.9375 3.5625 2.9375 C 4.613281 2.9375 5.75 2.644531 6.96875 2.0625 C 8.8125 1.175781 10.523438 -0.390625 12.109375 -2.640625 Z M 12.109375 -2.640625 "/></g></g></g></svg>